<!DOCTYPE svg PUBLIC "-//W3C//DTD SVG 1.1//EN" "http://www.w3.org/Graphics/SVG/1.1/DTD/svg11.dtd">
<!-- Uploaded to: SVG Repo, www.svgrepo.com, Transformed by: SVG Repo Mixer Tools -->
<svg fill="#4f46e5" width="800px" height="800px" viewBox="0 0 32 32" version="1.1" xmlns="http://www.w3.org/2000/svg">
<g id="SVGRepo_bgCarrier" stroke-width="0"/>
<g id="SVGRepo_tracerCarrier" stroke-linecap="round" stroke-linejoin="round"/>
<g id="SVGRepo_iconCarrier"> <title>grammarly</title> <path d="M18.959 18.032c-0.001 0-0.002 0-0.003 0-0.313 0-0.592 0.142-0.777 0.365l-0.001 0.002c-0.146 0.176-0.235 0.403-0.235 0.652 0 0.066 0.006 0.131 0.018 0.194l-0.001-0.006c0.106 0.477 0.525 0.828 1.026 0.828 0.008 0 0.017-0 0.025-0l-0.001 0h1.571l0.911-0.128c-1.222 1.714-3.204 2.818-5.443 2.818-0.465 0-0.919-0.048-1.357-0.138l0.043 0.007c-2.295-0.363-4.162-1.899-4.988-3.963l-0.015-0.043c-0.329-0.772-0.52-1.671-0.52-2.614 0-3.76 3.038-6.811 6.793-6.831h0.002c2.36 0.074 4.426 1.272 5.687 3.074l0.015 0.023c0.182 0.288 0.499 0.477 0.859 0.477 0.207 0 0.4-0.062 0.561-0.169l-0.004 0.002c0.264-0.184 0.434-0.485 0.434-0.826 0-0.188-0.052-0.364-0.142-0.514l0.003 0.005h0.008c-1.585-2.467-4.315-4.078-7.421-4.078-4.856 0-8.792 3.936-8.792 8.792s3.936 8.792 8.792 8.792c2.64 0 5.008-1.164 6.62-3.006l0.009-0.010-0.191 1.069v0.966c-0 0.007-0 0.016-0 0.024 0 0.501 0.351 0.92 0.821 1.024l0.007 0.001c0.056 0.011 0.121 0.017 0.188 0.017 0.562 0 1.017-0.456 1.017-1.017v0-5.788h-5.519zM31 16c0 8.284-6.716 15-15 15s-15-6.716-15-15c0-8.284 6.716-15 15-15v0c8.284 0 15 6.716 15 15v0z"/> </g>
</svg>